<?xml version="1.0" standalone="no"?>
<!DOCTYPE svg PUBLIC "-//W3C//DTD SVG 20010904//EN"
 "http://www.w3.org/TR/2001/REC-SVG-20010904/DTD/svg10.dtd">
<svg version="1.0" xmlns="http://www.w3.org/2000/svg"
 width="120.000000pt" height="120.000000pt" viewBox="0 0 120.000000 120.000000"
 preserveAspectRatio="xMidYMid meet">
<metadata>
Created by potrace 1.14, written by Peter Selinger 2001-2017
</metadata>
<g transform="translate(0.000000,120.000000) scale(0.100000,-0.100000)"
fill="#000000" stroke="none">
<path d="M348 902 c-151 -191 -327 -497 -314 -546 9 -37 28 -37 118 -6 46 16
99 30 119 30 39 0 56 19 36 39 -16 16 -51 14 -135 -8 l-73 -19 7 21 c25 81
122 243 245 408 44 58 79 114 79 123 0 34 -38 15 -82 -42z"/>
<path d="M945 933 c-110 -118 -353 -531 -339 -576 13 -41 37 -42 121 -5 23 10
68 22 100 26 49 6 58 10 58 27 0 28 -52 30 -140 6 -38 -11 -71 -18 -73 -16 -3
2 14 41 36 87 44 92 134 233 222 348 65 85 82 115 73 124 -13 13 -33 5 -58
-21z"/>
<path d="M430 583 c-72 -81 -102 -197 -59 -226 28 -20 54 -11 89 32 26 30 30
32 30 15 0 -32 38 -74 66 -74 31 0 31 22 -1 54 -33 33 -32 60 6 141 22 47 28
70 21 77 -20 20 -41 -1 -72 -68 -35 -79 -75 -134 -96 -134 -32 0 -2 86 57 161
16 20 29 42 29 48 0 24 -40 9 -70 -26z"/>
<path d="M1000 583 c-40 -49 -71 -113 -77 -162 -4 -30 -1 -43 16 -60 24 -24
43 -20 88 21 l31 30 7 -23 c11 -36 35 -59 61 -59 32 0 41 20 17 40 -49 39 -50
75 -7 162 29 58 30 78 4 78 -15 0 -29 -18 -56 -75 -39 -83 -78 -135 -100 -135
-30 0 -5 73 51 150 19 26 35 53 35 59 0 24 -40 9 -70 -26z"/>
</g>
</svg>
